<svg width="324" height="383" viewBox="0 0 324 383" fill="none" xmlns="http://www.w3.org/2000/svg">
<g opacity="0.35" clip-path="url(#clip0_2002_19717)">
<path d="M178.683 279.346C135.808 216.659 140.45 134.688 186.06 77.4787C113.149 96.91 59.4474 163.241 59.4474 242.078C59.4474 261.882 62.8367 280.891 69.066 298.569C73.2848 297.063 77.8387 296.241 82.5793 296.241C99.9653 296.241 114.764 307.28 120.312 322.712C127.635 314.801 138.116 309.849 149.761 309.849C154.612 309.849 159.259 310.709 163.56 312.281C163.538 311.745 163.522 311.197 163.522 310.654C163.522 297.972 169.443 286.671 178.683 279.346Z" fill="url(#paint0_linear_2002_19717)"/>
<path d="M75.9325 168.987C118.845 123.868 110.43 198.931 111.567 213.755C111.567 213.755 127.629 206.135 149.454 195.403C146.537 153.506 159.182 111.192 186.06 77.4787C137.341 90.4621 97.2077 124.389 75.9325 168.987Z" fill="#BFE6ED"/>
<path d="M186.06 77.4787C126.547 114.665 96.9935 188.314 118.631 258.43C121.449 267.563 125.02 276.257 129.25 284.468C128.964 290.84 129.574 302.629 130.705 314.648C136.374 311.591 142.867 309.849 149.761 309.849C154.612 309.849 159.259 310.709 163.56 312.281C163.538 311.745 163.522 311.197 163.522 310.654C163.522 297.972 169.443 286.671 178.683 279.346C135.808 216.659 140.45 134.688 186.06 77.4787Z" fill="url(#paint1_linear_2002_19717)"/>
<path d="M186.06 77.4787C187.521 65.454 191.455 53.8456 197.579 43.426C185.621 33.9761 172.975 26.5804 160.297 21.4035C180.397 15.4377 200.474 14.8241 217.965 19.7217H217.959C223.799 14.9994 230.341 10.9401 237.532 7.72434C266.805 -5.37412 299.434 -1.24353 324 15.7664C320.407 45.3708 301.802 72.4278 272.529 85.5208C265.344 88.7365 257.95 90.9114 250.528 92.1166H250.534C242.569 108.403 228.764 122.948 210.933 133.959C215.487 121.069 218.349 106.733 219.223 91.5414C207.352 89.1748 196.041 84.3923 186.06 77.4787Z" fill="url(#paint2_linear_2002_19717)"/>
<path d="M178.683 279.346C170.234 266.993 163.637 253.894 158.83 240.38C154.914 246.055 151.887 252.388 149.964 259.186C149.228 259.159 148.487 259.148 147.745 259.148C121.746 259.148 99.3665 274.608 89.3304 296.805C103.723 299.243 115.5 309.323 120.312 322.712C127.635 314.801 138.116 309.849 149.761 309.849C154.612 309.849 159.259 310.709 163.56 312.281C163.538 311.745 163.522 311.197 163.522 310.654C163.522 297.972 169.443 286.671 178.683 279.346Z" fill="#010424"/>
<path d="M60.8097 263.684C62.3423 275.753 65.1384 287.427 69.066 298.569C73.2848 297.063 77.8387 296.241 82.5793 296.241C99.9653 296.241 114.764 307.28 120.312 322.712C126.783 315.722 135.732 311.038 145.762 310.046C144.18 309.268 142.521 308.578 140.796 307.997C136.204 306.447 131.529 305.779 126.948 305.894C127.14 305.39 127.332 304.88 127.508 304.36C134.594 283.449 123.344 260.77 102.377 253.697C87.2705 248.602 71.2413 253.007 60.8097 263.684Z" fill="#01052D"/>
<path d="M93.9118 263.903C116.044 263.903 133.985 281.795 133.985 303.872C133.985 304.415 133.974 304.957 133.952 305.499C138.253 303.927 142.9 303.067 147.745 303.067C169.877 303.067 187.824 320.964 187.824 343.036C187.824 365.108 169.877 383 147.745 383H40.0784C17.9408 383 0 365.108 0 343.036C0 320.964 17.9408 303.067 40.0784 303.067C44.9234 303.067 49.5707 303.927 53.8718 305.499C53.8499 304.957 53.8334 304.415 53.8334 303.872C53.8334 281.795 71.7797 263.903 93.9118 263.903Z" fill="url(#paint3_linear_2002_19717)"/>
<path d="M113.539 269.02C125.739 275.868 133.985 288.906 133.985 303.872C133.985 304.415 133.974 304.957 133.952 305.499C138.253 303.927 142.9 303.067 147.745 303.067C169.877 303.067 187.824 320.964 187.824 343.036C187.824 365.108 169.877 383 147.745 383H125.745C101.218 374.049 83.7109 350.563 83.7109 323.008C83.7109 300.29 95.6147 280.338 113.539 269.02Z" fill="#010424"/>
<path d="M93.9118 263.903C115.983 263.903 133.88 281.696 133.985 303.681C132.205 303.872 131.134 303.955 131.134 303.872C131.134 283.367 114.467 266.752 93.9118 266.752C73.3562 266.752 53.0204 284.425 53.8718 305.499C53.8499 304.957 53.8334 304.415 53.8334 303.872C53.8334 281.795 71.7797 263.903 93.9118 263.903Z" fill="#BFE6ED"/>
<path d="M177.991 369.261C170.641 377.675 159.819 383 147.745 383H40.0784C17.9408 383 0 365.108 0 343.036C0 331.285 5.0867 320.718 13.1837 313.405C11.0633 318.275 9.88776 323.643 9.88776 329.291C9.88776 351.363 27.8286 369.261 49.9662 369.261H177.991Z" fill="#01052D"/>
<path d="M186.06 77.4787C126.547 114.665 96.9935 188.314 118.631 258.43C121.449 267.563 125.02 276.257 129.25 284.468C133.573 282.88 138.247 282.009 143.125 282.009C145.504 282.009 147.839 282.217 150.102 282.611C146.756 277.073 143.719 271.277 141.01 265.223C111.051 198.219 131.48 121.551 186.06 77.4787Z" fill="#010424"/>
<path d="M121.911 267.995C123.954 273.386 126.267 278.601 128.827 283.641C127.678 277.988 125.311 272.641 121.911 267.995Z" fill="#300C50"/>
<path d="M118.631 258.43C96.9934 188.314 126.547 114.665 186.06 77.4787C158.385 92.7027 140.912 111.334 127.635 136.353C107.535 174.213 103.36 218.291 115.994 259.236C117.67 264.665 119.625 270.006 121.861 275.227C124.674 277.96 127.091 281.105 129.008 284.562C129.09 284.529 129.167 284.496 129.25 284.468C125.02 276.257 121.449 267.563 118.631 258.43Z" fill="#F6DCFD"/>
<path d="M53.8718 305.499C69.2088 311.109 80.1513 325.796 80.1513 343.036C80.1513 344.411 80.0799 345.775 79.9426 347.112C80.3765 345.836 80.7446 344.526 81.0522 343.184C84.8864 326.371 77.4816 309.63 63.7761 300.772C60.9526 298.942 57.8599 297.452 54.542 296.367C54.0806 298.794 53.8334 301.303 53.8334 303.872C53.8334 304.415 53.8499 304.957 53.8718 305.499Z" fill="#300C50"/>
<path d="M81.2335 283.663C89.0887 279.554 94.3842 274.202 93.0713 271.693C91.7529 269.19 84.3206 270.488 76.4654 274.591C68.6101 278.694 63.3091 284.052 64.6275 286.556C65.9404 289.059 73.3782 287.766 81.2335 283.663Z" fill="#BFE6ED"/>
<path d="M51.6855 320.323C59.7166 324.065 67.2038 325.018 68.4013 322.454C69.6043 319.896 64.0617 314.785 56.0252 311.043C47.9886 307.307 40.5014 306.348 39.3039 308.912C38.1063 311.476 43.649 316.582 51.6855 320.323Z" fill="#BFE6ED"/>
<path d="M282.263 38.4846C282.845 39.7829 283.262 41.147 283.504 42.544C284.454 48.0551 282.658 53.5717 279.549 58.1022C276.072 63.1695 270.958 67.0974 265.366 69.5955C259.773 72.0991 253.434 73.2988 247.326 72.5209C241.86 71.8251 236.537 69.4969 233.044 65.1198C232.154 64.0132 231.412 62.797 230.83 61.4987C230.242 60.2003 229.83 58.8362 229.588 57.4393C228.638 51.9282 230.429 46.4116 233.543 41.8811C237.021 36.8137 242.135 32.8858 247.727 30.3878C253.313 27.8842 259.658 26.6845 265.767 27.4624C271.232 28.1581 276.55 30.4864 280.049 34.858C280.933 35.9701 281.68 37.1862 282.263 38.4846Z" fill="#102770"/>
<path d="M277.368 36.6275C273.336 27.6596 260.065 24.8657 247.727 30.3878C235.389 35.9044 228.655 47.6497 232.692 56.6176C236.724 65.5855 249.996 68.3794 262.333 62.8573C274.671 57.3407 281.406 45.5954 277.368 36.6275Z" fill="url(#paint4_linear_2002_19717)"/>
<path d="M206.885 30.1796C188.098 21.0254 160.297 21.4034 160.297 21.4034C172.975 26.5804 185.621 33.976 197.579 43.426C201.37 36.2385 206.885 30.1796 206.885 30.1796Z" fill="#102770"/>
<path d="M210.933 133.959C210.933 133.959 231.786 115.142 236.372 92.9164C236.372 92.9164 229.116 93.3109 219.223 91.5414C218.349 106.733 215.487 121.069 210.933 133.959Z" fill="#102770"/>
<path d="M229.143 12.0193C257.109 1.4408 287.509 6.02061 310.706 22.0828C307.471 48.7563 292.052 73.3536 267.629 87.5422C269.271 86.9232 270.908 86.2494 272.529 85.5208C301.802 72.4278 320.407 45.3708 324 15.7664C299.434 -1.24353 266.805 -5.37412 237.531 7.72434C234.626 9.02268 231.83 10.458 229.143 12.0193Z" fill="#BFE6ED"/>
<path d="M211.604 241.727C237.861 241.727 259.142 262.955 259.142 289.136C259.142 289.782 259.125 290.429 259.103 291.07C264.201 289.202 269.716 288.183 275.462 288.183C301.72 288.183 323 309.411 323 335.591C323 361.772 301.72 383 275.462 383H147.745C121.493 383 100.207 361.777 100.207 335.591C100.207 309.405 121.493 288.183 147.745 288.183C153.497 288.183 159.006 289.202 164.109 291.07C164.082 290.429 164.065 289.782 164.065 289.136C164.065 262.955 185.352 241.727 211.604 241.727Z" fill="url(#paint5_linear_2002_19717)"/>
<path d="M147.745 383C121.493 383 100.207 361.777 100.207 335.591C100.207 314.977 113.407 297.441 131.831 290.911C133.227 294.976 133.985 299.331 133.985 303.872C133.985 304.415 133.974 304.957 133.952 305.499C138.253 303.927 142.9 303.067 147.745 303.067C169.877 303.067 187.824 320.964 187.824 343.036C187.824 365.108 169.877 383 147.745 383Z" fill="#01052D"/>
<path d="M147.745 379.176C123.619 378.453 104.041 359.663 104.041 335.591C104.041 329.127 105.453 322.991 107.985 317.469C116.319 299.325 137.544 286.052 164.109 291.07C167.471 264.703 186.472 245.551 211.604 245.551C236.735 245.551 256.027 267.776 259.103 291.07C259.125 290.429 259.142 289.782 259.142 289.136C259.142 262.95 237.861 241.727 211.604 241.727C196.799 241.727 183.572 248.476 174.854 259.066C168.114 267.245 164.065 277.719 164.065 289.136C164.065 289.782 164.082 290.429 164.109 291.07C161.511 290.116 158.808 289.388 156.023 288.9C153.337 288.429 150.569 288.183 147.745 288.183C141.961 288.183 136.418 289.218 131.288 291.103C131.194 291.141 131.095 291.174 130.996 291.212C119.571 295.502 110.243 304.053 104.953 314.927C101.915 321.173 100.207 328.185 100.207 335.591C100.207 361.777 121.493 383 147.745 383H275.462L196.316 380.633L147.745 379.176Z" fill="#BFE6ED"/>
<path d="M111.875 366.697C120.587 376.689 133.43 383 147.745 383H275.462C301.72 383 323 361.777 323 335.591C323 321.655 316.969 309.121 307.367 300.443C309.877 306.223 311.272 312.594 311.272 319.288C311.272 345.474 289.992 366.697 263.734 366.697H111.875Z" fill="#300C50"/>
<path d="M206.627 261.29C217.174 258.907 225.106 254.25 224.342 250.887C223.579 247.523 214.405 246.729 203.858 249.106C193.311 251.489 185.379 256.151 186.143 259.515C186.906 262.879 196.074 263.673 206.627 261.29Z" fill="#BFE6ED"/>
<path d="M259.103 291.064C258.549 304.837 252.11 317.091 242.223 325.402C255.137 317.979 264.228 304.678 265.811 289.163C263.514 289.634 261.273 290.275 259.103 291.064Z" fill="#300C50"/>
<path d="M164.109 291.064C164.659 304.837 171.102 317.091 180.99 325.402C168.075 317.979 158.984 304.678 157.397 289.163C159.698 289.634 161.94 290.275 164.109 291.064Z" fill="#300C50"/>
</g>
<defs>
<linearGradient id="paint0_linear_2002_19717" x1="119.73" y1="293.825" x2="124.423" y2="83.2248" gradientUnits="userSpaceOnUse">
<stop stop-color="#01052D"/>
<stop offset="1" stop-color="#1A85F8"/>
</linearGradient>
<linearGradient id="paint1_linear_2002_19717" x1="99.1907" y1="281.631" x2="301.865" y2="29.2286" gradientUnits="userSpaceOnUse">
<stop stop-color="#01052D"/>
<stop offset="1" stop-color="#1A85F8"/>
</linearGradient>
<linearGradient id="paint2_linear_2002_19717" x1="186.873" y1="81.2587" x2="400.451" y2="-103.184" gradientUnits="userSpaceOnUse">
<stop stop-color="#0276DB"/>
<stop offset="0.56" stop-color="#2DDAFF"/>
<stop offset="1" stop-color="#BFE6ED"/>
</linearGradient>
<linearGradient id="paint3_linear_2002_19717" x1="136.643" y1="363.969" x2="20.0693" y2="295.784" gradientUnits="userSpaceOnUse">
<stop stop-color="#020C6A"/>
<stop offset="1" stop-color="#1A85F8"/>
</linearGradient>
<linearGradient id="paint4_linear_2002_19717" x1="279.752" y1="23.2113" x2="210.465" y2="89.1937" gradientUnits="userSpaceOnUse">
<stop stop-color="#BFE6ED"/>
<stop offset="1" stop-color="#2DDAFF"/>
</linearGradient>
<linearGradient id="paint5_linear_2002_19717" x1="263.306" y1="446.652" x2="150.204" y2="202.371" gradientUnits="userSpaceOnUse">
<stop stop-color="#020C6A"/>
<stop offset="1" stop-color="#1A85F8"/>
</linearGradient>
<clipPath id="clip0_2002_19717">
<rect width="324" height="383" fill="white"/>
</clipPath>
</defs>
</svg>
